Coordinates
version=1
nRows=20
nColumns=38
inDegrees=no

Units are S.I. units (second, meters, Newtons, ...)
If the header above contains a line with 'inDegrees', this indicates whether rotational values are in degrees (yes) or radians (no).

endheader
time	pelvis_tilt	pelvis_list	pelvis_rotation	pelvis_tx	pelvis_ty	pelvis_tz	hip_flexion_r	hip_adduction_r	hip_rotation_r	knee_angle_r	ankle_angle_r	subtalar_angle_r	mtp_angle_r	hip_flexion_l	hip_adduction_l	hip_rotation_l	knee_angle_l	ankle_angle_l	subtalar_angle_l	mtp_angle_l	lumbar_extension	lumbar_bending	lumbar_rotation	arm_flex_r	arm_add_r	arm_rot_r	elbow_flex_r	pro_sup_r	wrist_flex_r	wrist_dev_r	arm_flex_l	arm_add_l	arm_rot_l	elbow_flex_l	pro_sup_l	wrist_flex_l	wrist_dev_l
2.43	-1.02203	1.48917	-0.429328	0.757249	-0.626405	0.921461	0.251743	0.0565126	-0.279925	0.377757	0.0736358	0	0	0.0255638	-0.293369	-0.164305	1.05768	-0.0228113	0	0	-0.129106	0.132352	-0.13952	-0.0184776	-0.328796	0.485414	0.609489	1.30197	0	0	-0.094267	-0.353892	0.492255	0.751329	0.971086	0	0
2.44	-0.940025	1.49104	-0.5147	0.755571	-0.636691	0.923633	0.230555	0.0569049	-0.273541	0.370672	0.0776279	0	0	0.0409792	-0.290054	-0.16275	1.07652	-0.000396605	0	0	-0.135519	0.125252	-0.131274	-0.0120972	-0.330594	0.478162	0.615878	1.31565	0	0	-0.102081	-0.352662	0.493938	0.751588	0.96705	0	0
2.45	-0.864105	1.493	-0.593734	0.754049	-0.646905	0.925645	0.209663	0.056551	-0.27068	0.361783	0.0817657	0	0	0.0576054	-0.286304	-0.162105	1.09146	0.0179616	0	0	-0.140521	0.118033	-0.123945	-0.00611707	-0.33261	0.469674	0.62337	1.33068	0	0	-0.110457	-0.351086	0.493876	0.751969	0.963482	0	0
2.46	-0.79332	1.49514	-0.666894	0.752551	-0.656995	0.927565	0.189266	0.0559615	-0.268924	0.351399	0.0857436	0	0	0.0751413	-0.282326	-0.162284	1.10163	0.0326122	0	0	-0.144452	0.110622	-0.116905	-0.00158684	-0.333891	0.45643	0.632276	1.34509	0	0	-0.117665	-0.350285	0.496251	0.75196	0.95951	0	0
2.47	-0.738249	1.49776	-0.724252	0.751157	-0.666925	0.929215	0.170776	0.0553014	-0.26868	0.340459	0.0887764	0	0	0.0946806	-0.278349	-0.163335	1.10834	0.0449485	0	0	-0.146267	0.103601	-0.10966	0.00157674	-0.335412	0.440527	0.643313	1.35597	0	0	-0.124024	-0.349864	0.500889	0.751891	0.955574	0	0
2.48	-0.695887	1.50135	-0.768586	0.749863	-0.676656	0.930634	0.154452	0.0543443	-0.269804	0.329368	0.0903417	0	0	0.115892	-0.274343	-0.166175	1.1112	0.0585065	0	0	-0.146334	0.0967188	-0.102806	0.00366586	-0.337344	0.423723	0.656722	1.36387	0	0	-0.130198	-0.349303	0.505305	0.752123	0.949558	0	0
2.49	-0.619547	1.51528	-0.848678	0.748549	-0.686346	0.930724	0.170082	0.0244146	-0.327703	0.376944	0.118648	0	0	0.143726	-0.260052	-0.17187	1.11211	0.0740629	0	0	-0.138577	0.0801486	-0.0957258	0.00380121	-0.337499	0.39877	0.671059	1.40491	0	0	-0.139529	-0.351282	0.508125	0.757769	0.939234	0	0
2.5	-0.599991	1.51112	-0.872267	0.747306	-0.69553	0.93298	0.129545	0.0483757	-0.269701	0.318049	0.0977313	0	0	0.159239	-0.263316	-0.179503	1.10675	0.0867257	0	0	-0.144779	0.0810743	-0.0870285	0.00951939	-0.344233	0.395126	0.687035	1.38919	0	0	-0.143907	-0.346526	0.505691	0.754703	0.943991	0	0
2.51	-0.442572	1.52148	-1.03576	0.745958	-0.705108	0.933369	0.141565	0.0197265	-0.320273	0.364682	0.124328	0	0	0.179985	-0.249369	-0.192011	1.09773	0.098063	0	0	-0.141116	0.064811	-0.0774002	0.00773174	-0.346944	0.375301	0.708735	1.40291	0	0	-0.152081	-0.34835	0.507851	0.761359	0.931314	0	0
2.52	-0.310739	1.52374	-1.17205	0.744862	-0.714485	0.934768	0.126591	0.0154048	-0.318327	0.358561	0.128609	0	0	0.195674	-0.240045	-0.200431	1.08346	0.106571	0	0	-0.14272	0.0560743	-0.0696356	0.0104336	-0.351125	0.366041	0.72527	1.39868	0	0	-0.158725	-0.346181	0.504112	0.762515	0.932349	0	0
2.53	-0.286315	1.5176	-1.19933	0.743947	-0.723744	0.937113	0.0812992	0.0370772	-0.262365	0.295788	0.10809	0	0	0.205311	-0.241082	-0.210202	1.06575	0.113055	0	0	-0.150833	0.056447	-0.0623334	0.0135587	-0.356004	0.353401	0.742814	1.39732	0	0	-0.162508	-0.341905	0.501838	0.759818	0.93324	0	0
2.54	-0.0358386	1.52253	-1.45569	0.74308	-0.732918	0.937531	0.0937068	0.00755669	-0.311079	0.345651	0.136638	0	0	0.221036	-0.224876	-0.225197	1.04526	0.119842	0	0	-0.149792	0.0403167	-0.0545113	0.0139412	-0.359882	0.339337	0.764988	1.39399	0	0	-0.170077	-0.341889	0.499047	0.764215	0.934689	0	0
2.55	0.100191	1.52139	-1.59552	0.742358	-0.741934	0.938682	0.0797751	0.00209116	-0.309995	0.342355	0.142356	0	0	0.233439	-0.215704	-0.237204	1.02113	0.125984	0	0	-0.152648	0.0321236	-0.0483208	0.0174516	-0.364345	0.330109	0.781834	1.38868	0	0	-0.17511	-0.339715	0.497005	0.764448	0.934165	0	0
2.56	0.158028	1.51699	-1.65711	0.741595	-0.750906	0.940236	0.0506997	0.00865348	-0.284163	0.310777	0.13557	0	0	0.241139	-0.210379	-0.250234	0.992493	0.131816	0	0	-0.15888	0.0275743	-0.0418902	0.0215697	-0.369084	0.322556	0.797295	1.38388	0	0	-0.178638	-0.336413	0.493884	0.762776	0.933404	0	0
2.57	0.329295	1.51386	-1.83428	0.740937	-0.759905	0.940972	0.0461713	-0.00739407	-0.300798	0.328972	0.149377	0	0	0.249254	-0.196914	-0.266706	0.95968	0.13801	0	0	-0.161652	0.0156481	-0.0347494	0.0251509	-0.373304	0.314861	0.813047	1.37971	0	0	-0.183512	-0.334218	0.489704	0.763312	0.932893	0	0
2.58	0.416853	1.51017	-1.92639	0.740447	-0.768871	0.941724	0.0319088	-0.0131496	-0.299575	0.326701	0.155613	0	0	0.257604	-0.189215	-0.285105	0.926935	0.143508	0	0	-0.165196	0.00819521	-0.0285782	0.0289358	-0.377683	0.306217	0.828708	1.3732	0	0	-0.187381	-0.33069	0.485273	0.761944	0.93197	0	0
2.59	0.470692	1.50603	-1.98441	0.740021	-0.777805	0.942398	0.0156022	-0.0167165	-0.296856	0.320759	0.160379	0	0	0.264478	-0.183013	-0.304495	0.891649	0.147317	0	0	-0.169338	0.00227156	-0.0230762	0.0333312	-0.383475	0.304145	0.845198	1.34208	0	0	-0.190674	-0.32615	0.479103	0.758612	0.937834	0	0
2.6	0.477176	1.50249	-1.99397	0.739658	-0.786711	0.943061	-0.00636151	-0.0142517	-0.286476	0.303086	0.160129	0	0	0.270589	-0.179408	-0.322264	0.854358	0.149137	0	0	-0.174046	-0.000609221	-0.0182991	0.0379052	-0.38656	0.293622	0.857524	1.3477	0	0	-0.192303	-0.323033	0.47944	0.755849	0.930187	0	0
2.61	0.535498	1.50061	-2.05558	0.739597	-0.795492	0.943037	-0.0150182	-0.0207019	-0.292846	0.307678	0.169652	0	0	0.279507	-0.171374	-0.339236	0.815095	0.149765	0	0	-0.17537	-0.00603481	-0.014406	0.0429109	-0.390359	0.287368	0.869354	1.34746	0	0	-0.194218	-0.320212	0.479967	0.753554	0.927022	0	0
2.62	0.574196	1.49872	-2.09761	0.739511	-0.804194	0.942984	-0.0280758	-0.0237672	-0.29274	0.303368	0.175889	0	0	0.287036	-0.164111	-0.356497	0.773033	0.148733	0	0	-0.177152	-0.010325	-0.0102536	0.0478046	-0.393578	0.280598	0.880479	1.34709	0	0	-0.194588	-0.317542	0.482597	0.750197	0.92197	0	0
